# xmcd
#
# Track frame offsets: 
#        150
#        18357
#        34441
#        45442
#        58358
#        68950
#        80202
#        97639
#        111892
#        125802
#        143326
#        156285
#        174029
#
# Disc length: 2480 seconds
#
# Revision: 1
# Processed by: cddbd v1.5.2PL0 Copyright (c) Steve Scherf et al.
# Submitted via: ExactAudioCopy v1.1
#
DISCID=ab09ae0d
DTITLE=Jaromir Nohavica - Poruba
DYEAR=2017
DGENRE=Folk
TTITLE0=Poruba 
TTITLE1=Kdo z nas
TTITLE2=Lzou mi do oci
TTITLE3=Velka tma
TTITLE4=Himalaje
TTITLE5=Sako ze sametu
TTITLE6=Cerna jama
TTITLE7=Nataso, lasko ma
TTITLE8=Najezdnici
TTITLE9=Tri rohy penalta
TTITLE10=Raz dva tri
TTITLE11=Empire state
TTITLE12=Naporad
EXTD=
EXTT0=
EXTT1=
EXTT2=
EXTT3=
EXTT4=
EXTT5=
EXTT6=
EXTT7=
EXTT8=
EXTT9=
EXTT10=
EXTT11=
EXTT12=
PLAYORDER=
